<svg aria-hidden="true" style="width:0;height:0;position:absolute;overflow:hidden" xmlns="http://www.w3.org/2000/svg"><defs><symbol id="telegram" viewBox="0 0 34 32"><path opacity=".8" d="M32.526 16.131c0 8.706-7.058 15.764-15.764 15.764S.998 24.837.998 16.131 8.056.367 16.762.367s15.764 7.058 15.764 15.764zm-15.2-4.126C9.488 15.16 6.46 16.491 3.443 17.842l4.69-1.876c-.747.296-1.138.587-1.173.87-.061.482.541.67 1.359.926.111.035.227.07.344.11.806.262 1.89.568 2.45.579.51.012 1.082-.198 1.71-.629 4.294-2.9 6.51-4.364 6.648-4.396.099-.021.236-.05.328.032.091.081.082.236.073.279-.061.253-2.417 2.446-3.639 3.581-.381.354-.649.603-.706.661-.122.128-.248.25-.37.366-.748.721-1.307 1.262.032 2.146.645.424 1.158.774 1.673 1.125.561.381 1.12.762 1.844 1.239.184.12.361.244.533.366.652.468 1.24.885 1.966.82.419-.04.856-.434 1.076-1.615.523-2.793 1.55-8.841 1.787-11.334a2.679 2.679 0 0 0-.027-.62.664.664 0 0 0-.225-.426l-.001-.001c-.187-.154-.478-.187-.61-.184-.594.011-1.502.328-5.882 2.149z"/></symbol><symbol id="facebook" viewBox="0 0 32 32"><path opacity=".8" d="M18.78 28.96c6.285-1.285 11.013-6.847 11.013-13.512 0-7.617-6.176-13.793-13.793-13.793S2.207 7.831 2.207 15.448c0 6.599 4.633 12.115 10.823 13.472v-9.967H9.931v-4.1h3.099v-3.504c0-2.752 1.831-5.28 6.048-5.28 1.707 0 2.971.159 2.971.159l-.1 3.829s-1.288-.012-2.693-.012c-1.52 0-1.764.681-1.764 1.813v2.993h4.579l-.2 4.101h-4.379V29.16c.436-.047.867-.113 1.289-.2z"/></symbol><symbol id="gift" viewBox="0 0 32 32"><path fill="none" opacity=".9" stroke="#fff" style="stroke:var(--color1,#fff)" stroke-linejoin="round" stroke-linecap="round" stroke-width="1.333" d="M26.24 16v10.133a2.667 2.667 0 0 1-2.667 2.667v0H8.426a2.667 2.667 0 0 1-2.667-2.667v0V16M16 28.8V9.6m0 0h-5.76a3.2 3.2 0 0 1 0-6.4v0C14.72 3.2 16 9.6 16 9.6zm0 0h5.76a3.2 3.2 0 0 0 0-6.4v0C17.28 3.2 16 9.6 16 9.6zM5.867 16h20.267a2.667 2.667 0 0 0 2.667-2.667v0-1.067a2.667 2.667 0 0 0-2.667-2.667v0H5.867A2.667 2.667 0 0 0 3.2 12.266v1.067A2.667 2.667 0 0 0 5.867 16v0z"/></symbol><symbol id="earth" viewBox="0 0 32 32"><path fill="#fff" style="fill:var(--color1,#fff)" opacity=".9" d="m16.791 2.701.047-.665-.905-.063.209.881.649-.153zm11.476 8.634.23.625.625-.23-.229-.625-.627.229zM16.839 2.899zm.324.604zm.244.26zm.259 1.266.627.229-.627-.228zm-.045.125zm.659 1.413zm.719 1.155zm-.135 1.255zm.353 1.055zm1.085 1.158zm1.234.396zm2.807-.561zm.46-.011v-.001zm2.739.411v.001zm.658-.066zM8.533 26.845l-.371.555.357.239.365-.227-.351-.567zm1.002-22.56.455-.488-.353-.328-.422.231.32.585zm.934.869.454-.487-.454.488zm.267.345zm.604 1.126-.587.315.02.038.025.035.542-.388zm1.169 1.632zm.327 2.546zm.268.747zm-.552 1.583zm-1.101.683zm-.206.157zm-1.323 1.232zm-1.54 1.433zm-.379 1.321zm.402 1.496zm.379.63-.455.488.454-.488zm.9.838h.001zm.347.527zm.6 1.675zm.346.965zm-.553 1.583.352.567-.351-.567zm5.131-8.324zm1.073-.975zm-1.251 2.75-.538.394.538-.393zm.642.876zm.242.995zm-.295 1.88v.001zm.047.477.626-.229-.627.229zm1.241.56zm1.638-.638zm.629-.508zm.963-1.459zm.143-.18-.485-.458.485.457zm1.369-1.453.485.458-.485-.457zm-.219-2.016zm-.39-.265.376-.551-.015-.01-.015-.009-.345.57zm-1.075-.652h.001zm-.395-.16zm-1.47-.334-.193.638.023.007.023.005.147-.65zm-.536-.162zM16.745 3.367c5.024.347 9.235 3.657 10.896 8.197l1.253-.458C27.057 6.085 22.4 2.422 16.837 2.037l-.092 1.33zm-.602-.512.047.197 1.298-.307-.047-.198-1.298.307zm.046.198c.086.354.256.66.488.908l-.001-.001.973-.912a.659.659 0 0 1-.161-.297l-.001-.005-1.297.307zm.487.906.244.26.973-.911-.244-.26-.973.911zm.244.26a.566.566 0 0 1 .119.583l1.253.456a1.897 1.897 0 0 0-.401-1.952l.001.001-.973.911zm.119.584-.045.124 1.253.456.045-.124-1.253-.456zm-.045.124a1.77 1.77 0 0 0 1.045 2.264l.012.004.456-1.253a.438.438 0 0 1-.26-.562l-.001.003-1.253-.456zm1.058 2.268a.437.437 0 0 1 .285.457l1.325.143a1.77 1.77 0 0 0-1.142-1.848l-.012-.004-.456 1.253zm.285.456-.135 1.255 1.326.143.135-1.255-1.325-.143zm-.136 1.256a1.996 1.996 0 0 0 .529 1.582l-.001-.001.973-.911a.666.666 0 0 1-.176-.529v.003L18.2 8.908zm.529 1.581 1.085 1.159.973-.911-1.085-1.159-.973.911zm1.085 1.159a1.993 1.993 0 0 0 1.864.591l-.013.002-.261-1.307a.66.66 0 0 1-.617-.198l-.973.911zm1.852.593 2.807-.56-.261-1.308-2.807.561.261 1.307zm2.806-.56a.71.71 0 0 1 .23-.007l.198-1.318a1.952 1.952 0 0 0-.702.019l.013-.002.261 1.307zm.23-.007 2.74.412.198-1.319-2.74-.411-.198 1.319zm2.74.412a2.003 2.003 0 0 0 1.001-.105l-.014.005-.46-1.251a.65.65 0 0 1-.333.033h.004l-.199 1.319zm.987-.1.067-.025-.46-1.251-.067.025.46 1.251zM8.905 26.293A12.522 12.522 0 0 1 3.334 15.87H2.001c0 4.808 2.448 9.044 6.162 11.531l.742-1.108zM3.333 15.87c0-4.743 2.633-8.871 6.521-11l-.641-1.169A13.86 13.86 0 0 0 2 15.87h1.333zm7.59-11.203-.934-.869-.909.976.935.869.909-.976zm.4.517a2.03 2.03 0 0 0-.398-.516l-.001-.001-.909.976a.676.676 0 0 1 .132.169l.002.003 1.175-.631zm.604 1.126-.605-1.126-1.175.631.605 1.125 1.175-.631zm1.124 1.559-1.169-1.632-1.084.777 1.169 1.632 1.084-.777zm.374 1.164v-.001c0-.437-.14-.841-.377-1.169l.004.006-1.085.777a.66.66 0 0 1 .125.388h1.333zm0 1.32v-1.32h-1.333v1.32h1.333zm.039.226a.652.652 0 0 1-.039-.225h-1.333c0 .242.043.474.122.689l-.004-.014 1.255-.449zm.267.747-.267-.747-1.255.449.268.747 1.255-.449zm-.828 2.373a2.002 2.002 0 0 0 .824-2.387l.004.014-1.255.449a.668.668 0 0 1-.273.79l-.003.002.703 1.133zm-1.101.684 1.101-.683-.703-1.133-1.101.683.703 1.133zm-.103.078a.627.627 0 0 1 .1-.076l.003-.002-.703-1.133a1.97 1.97 0 0 0-.309.237l.001-.001.909.975zm-1.323 1.232 1.323-1.232-.909-.975-1.323 1.231.909.976zm-1.54 1.434 1.54-1.433-.909-.976-1.54 1.433.909.976zm-.189.66a.67.67 0 0 1 .189-.66l-.908-.976a1.995 1.995 0 0 0-.566 1.996l-.003-.014 1.288-.346zm.401 1.496-.401-1.495-1.288.346.402 1.495 1.287-.346zm.19.315a.666.666 0 0 1-.189-.311l-.001-.005-1.287.346c.103.375.301.696.568.944l.001.001.909-.976zm.9.838-.9-.838-.909.976.901.838.909-.976zm.521.79a1.996 1.996 0 0 0-.519-.789l-.001-.001-.909.976a.671.671 0 0 1 .173.263l1.255-.449zm.6 1.675-.6-1.675-1.255.449.6 1.675 1.255-.449zm.345.965-.345-.965-1.255.449.346.965 1.255-.449zm-.828 2.373a2.002 2.002 0 0 0 .824-2.387l.004.014-1.255.449a.666.666 0 0 1-.274.79l-.003.002.703 1.133zm-1.891 1.174 1.891-1.173-.703-1.133-1.891 1.173.703 1.133zm7.119-9.57 1.072-.975-.897-.987-1.072.975.897.987zm-.089.887a.666.666 0 0 1 .088-.887h.001l-.897-.987a1.995 1.995 0 0 0-.264 2.668l-.004-.005 1.075-.789zm.642.876-.642-.875-1.075.789.643.875 1.075-.789zm.363 1.493a1.988 1.988 0 0 0-.367-1.499l.004.005-1.075.789a.66.66 0 0 1 .12.502l.001-.004 1.317.207zm-.295 1.88.295-1.88-1.317-.207-.295 1.88 1.317.207zm.013.144a.274.274 0 0 1-.013-.145v.002l-1.317-.207a1.637 1.637 0 0 0 .083.82l-.004-.011 1.252-.459zm.373.169a.287.287 0 0 1-.373-.166l-.001-.002-1.251.459a1.624 1.624 0 0 0 2.12.949l-.011.004-.484-1.242zm1.64-.639-1.639.639.484 1.242 1.638-.638-.484-1.243zm.314-.253a.67.67 0 0 1-.31.252l-.005.002.484 1.243c.393-.156.715-.42.939-.755l.005-.007-1.113-.735zm.962-1.46-.963 1.46 1.113.733.963-1.458-1.113-.735zm.214-.27a2.063 2.063 0 0 0-.209.263l-.005.007 1.113.735a.601.601 0 0 1 .072-.091l-.971-.915zm1.37-1.452-1.369 1.452.971.915 1.369-1.452-.971-.915zm-.11-1.008a.667.667 0 0 1 .109 1.009l.971.915c.337-.357.545-.84.545-1.372 0-.684-.343-1.288-.867-1.648l-.007-.004-.751 1.102zm-.389-.266.389.266.751-1.102-.389-.265-.751 1.101zm-1.045-.632 1.075.651.691-1.14-1.075-.652-.691 1.14zm-.198-.08a.675.675 0 0 1 .197.08l.691-1.14a1.966 1.966 0 0 0-.58-.237l-.014-.003-.296 1.3zm-1.469-.334 1.469.333.295-1.3-1.469-.333-.295 1.3zm-.582-.175.536.163.387-1.276-.536-.163-.387 1.276zm-.642.145a.662.662 0 0 1 .646-.143l-.005-.001.387-1.276a1.993 1.993 0 0 0-1.927.435l.002-.001.897.987z"/><path fill="none" opacity=".9" stroke="#fff" style="stroke:var(--color1,#fff)" stroke-width="1.333" d="M29.067 15.87c0 7.29-5.91 13.2-13.2 13.2s-13.2-5.91-13.2-13.2c0-7.29 5.91-13.2 13.2-13.2s13.2 5.91 13.2 13.2z"/></symbol><symbol id="tv" viewBox="0 0 32 32"><path fill="none" opacity=".9" stroke="#fff" style="stroke:var(--color1,#fff)" stroke-linejoin="round" stroke-linecap="round" stroke-width="1.333" d="M22.667 2.67 16 9.337 9.333 2.67M5.334 9.337h21.333a2.667 2.667 0 0 1 2.667 2.667v14.667a2.667 2.667 0 0 1-2.667 2.667v0H5.334a2.667 2.667 0 0 1-2.667-2.667v0-14.667a2.667 2.667 0 0 1 2.667-2.667v0zm4.389 5.35h12.962m-12.962 4.76h12.962M9.723 24.205h12.962"/></symbol><symbol id="devices" viewBox="0 0 32 32"><path fill="none" opacity=".9" stroke="#fff" style="stroke:var(--color1,#fff)" stroke-width="1.333" d="M14.443 22.269H4.264a2.667 2.667 0 0 1-2.666-2.666V7.335a2.664 2.664 0 0 1 2.663-2.667h21.871a2.665 2.665 0 0 1 2.665 2.667v4"/><path fill="#fff" style="fill:var(--color1,#fff)" opacity=".9" d="M9.215 25.81a.667.667 0 1 0 .534 1.222l-.004.002-.529-1.223zm5.16-1.338c-1.076 0-2.386.351-3.377.674-.767.25-1.354.474-1.929.719l.157-.06-.007.003-.002.001h-.001l.265.613c.265.611.264.612.264.612l.001-.001.005-.002.023-.01.093-.039c.081-.033.2-.082.35-.14.3-.117.719-.273 1.195-.429.975-.318 2.113-.609 2.963-.609v-1.333z"/><path fill="none" opacity=".9" stroke="#fff" style="stroke:var(--color1,#fff)" stroke-width="1.333" d="M24.444 26.67h-8.047a2 2 0 0 1-2-2v-14a2 2 0 0 1 2-2h10.4a2 2 0 0 1 2 2v2.222"/><path fill="none" opacity=".9" stroke="#fff" style="stroke:var(--color1,#fff)" stroke-linecap="round" stroke-width="1.333" d="M20.498 23.384h1.4"/><path fill="none" opacity=".9" stroke="#fff" style="stroke:var(--color1,#fff)" stroke-width="1.333" d="M23.875 14.902a2 2 0 0 1 2-2h2.969a2 2 0 0 1 2 2v9.933a2 2 0 0 1-2 2h-2.969a2 2 0 0 1-2-2v-9.933z"/><path fill="none" opacity=".9" stroke="#fff" style="stroke:var(--color1,#fff)" stroke-linecap="round" stroke-width="1.333" d="M26.86 24.303h.996"/></symbol><symbol id="samsung" viewBox="0 0 200 32"><path fill="#244a9a" style="fill:var(--color1,#244a9a)" d="M103.136 10.884v11.075l-8.957-6.194 8.957-4.881z"/><path fill="#95a948" style="fill:var(--color2,#95a948)" d="M85.315 10.884v11.075l8.86-6.194-8.86-4.881z"/><path fill="#ffde14" style="fill:var(--color3,#ffde14)" d="M94.177-.186 82.62 6.103h11.557V-.186z"/><path fill="#f0c3c0" style="fill:var(--color4,#f0c3c0)" d="m94.179-.186 11.557 6.289H94.179V-.186z"/><path fill="#d3d80e" style="fill:var(--color5,#d3d80e)" d="m94.175 15.77-11.461 7.884h11.461v-7.885z"/><path fill="#2dafe6" style="fill:var(--color6,#2dafe6)" d="m94.179 15.77 11.557 7.884H94.179v-7.885z"/><path fill="#fbef82" style="fill:var(--color7,#fbef82)" d="M82.714 23.656h11.461v7.697l-11.461-7.697z"/><path fill="#afdff9" style="fill:var(--color8,#afdff9)" d="M105.736 23.656H94.179v7.697l11.557-7.697z"/><path fill="#f18825" style="fill:var(--color9,#f18825)" d="M82.714 6.101h11.558v6.289L82.714 6.101z"/><path fill="#e94287" style="fill:var(--color10,#e94287)" d="M105.736 6.101H94.179v6.289l11.557-6.289z"/><path fill="#fff" style="fill:var(--color11,#fff)" opacity=".8" d="M105.732 23.653V6.102l-11.557 6.289-11.461-6.289v17.551l2.6 1.784V10.89l8.861 4.881 8.957-4.881v14.548l2.6-1.784zm33.999-6.379c.963-.376 1.83-.939 2.504-1.783.77-.939 1.155-2.159 1.155-3.473a6.015 6.015 0 0 0-.496-2.385l.015.039c-.289-.751-.771-1.315-1.348-1.878-.578-.47-1.349-.938-2.215-1.22s-1.83-.376-2.89-.376h-7.416v19.335h2.6v-16.8h4.815c1.445 0 2.504.281 3.178.845s1.059 1.407 1.059 2.44c0 1.126-.385 1.877-1.059 2.44-.771.563-1.83.845-3.178.845h-3.178v2.44h3.852l3.66 7.696h2.889l-3.949-8.166zm5.875-10.983v2.44h5.971v16.801h2.6v-16.8h5.971V6.29h-14.543zm-27.351 0h-2.215l-7.608 19.241h2.793l2.408-6.007h7.223l2.408 6.007h2.697l-7.705-19.241zm-3.756 10.982 2.696-6.852 2.697 6.852h-5.393zm-35.734.747a5.345 5.345 0 0 0-1.155-1.688l-.001-.001c-.481-.47-1.059-.845-1.734-1.22-.674-.282-1.445-.563-2.215-.657l-3.564-.469c-.385-.094-.77-.094-1.155-.282-.289-.094-.579-.282-.867-.47-.193-.188-.385-.469-.577-.751a3.355 3.355 0 0 1-.193-1.127c0-.469.096-.938.289-1.219.193-.376.481-.657.77-.939a6.097 6.097 0 0 1 1.308-.736l.041-.015c.577-.188 1.155-.188 1.734-.188.77 0 1.541.095 2.118.376.578.188 1.059.563 1.445.939.289.281.481.563.578.938.096.281.289.657.289 1.126l.096.469h2.6l-.096-.657c-.096-.751-.193-1.408-.481-1.971s-.674-1.032-1.059-1.501c-.578-.657-1.445-1.22-2.408-1.596a8.378 8.378 0 0 0-3.05-.564h-.033.002c-.963 0-1.83.188-2.697.47s-1.637.751-2.311 1.315c-.49.478-.934 1-1.326 1.56l-.023.035c-.385.657-.577 1.408-.577 2.253 0 .751.096 1.502.385 2.065s.675 1.127 1.156 1.596 1.059.751 1.637 1.032c.578.282 1.252.376 2.023.47l3.467.469c.481.094.963.188 1.348.376s.674.376.963.657c.289.282.481.563.578.845s.193.657.193 1.033c0 .469-.097.938-.289 1.22a3.338 3.338 0 0 1-.674.938c-.481.376-.963.657-1.637.845s-1.445.282-2.215.282c-.674 0-1.445-.094-2.023-.376-.674-.188-1.155-.563-1.637-.938a3.379 3.379 0 0 1-.762-1.105l-.008-.022c-.193-.375-.385-.844-.385-1.313l-.097-.563H63.84l.096.657c.097.751.289 1.502.577 2.159s.771 1.22 1.252 1.784c.675.751 1.542 1.22 2.504 1.595s2.022.563 3.178.563c1.155 0 2.215-.188 3.178-.47s1.83-.845 2.504-1.501a6.173 6.173 0 0 0 1.155-1.596c.303-.662.48-1.437.481-2.252.385-.563.289-1.22 0-1.878zm106.999 7.608h1.734l7.608-19.429h-2.023l-6.452 16.707L179.985 6.2h-14.543v1.783h6.26v17.645h1.83V7.983h5.201l7.031 17.645z"/><path fill="#fff" style="fill:var(--color11,#fff)" opacity=".8" d="M103.136 10.888v14.548l2.6-1.784V6.101L94.179 12.39v3.379l8.957-4.881zM5.668 15.304c-1.252-.376-1.541-1.408-1.541-2.253v-.282c0-1.596.867-2.44 2.697-2.44h.866c1.445 0 2.312.563 2.312 2.065 0 .376-.193.657-.674.657s-.674-.282-.674-.657c0-.563-.385-.845-.963-.845h-.867c-.963 0-1.445.376-1.445 1.22v.282c0 .563.385.938.77 1.032l2.504.938c1.059.376 1.638 1.127 1.638 2.346v.47c0 1.595-.867 2.534-2.697 2.534H6.247c-1.445 0-2.312-.563-2.312-2.065 0-.376.193-.657.675-.657s.673.282.673.657c0 .563.385.845.963.845h1.445c.963 0 1.444-.47 1.444-1.315v-.469c0-.563-.289-.939-.674-1.126l-2.793-.939zm9.343-2.257c1.444 0 2.311.845 2.311 2.159v4.412c0 .376-.193.657-.674.657h-2.6c-1.348 0-2.119-.563-2.119-1.877v-1.032c0-1.315.867-1.878 2.119-1.878h2.023v-.282c0-.657-.385-.938-.963-.938h-1.83c-.385 0-.675-.188-.675-.563s.289-.563.675-.563h1.734v-.094zm.963 6.007v-2.44h-2.022c-.577 0-.867.282-.867.751v1.032c0 .376.289.751.867.751h2.022v-.095zm10.208-3.473c0-.845-.385-1.314-1.348-1.314h-.771v5.537c0 .376-.193.657-.674.657s-.675-.282-.675-.657v-5.537h-2.118v5.537c0 .376-.193.657-.674.657s-.674-.282-.674-.657v-6.1c0-.375.193-.657.675-.657h4.911c1.734 0 2.6.939 2.6 2.534v4.224c0 .376-.193.657-.675.657s-.674-.282-.674-.657v-4.223h.097zm5.206 4.785c-1.348 0-2.119-.47-2.119-1.69 0-.375.193-.657.675-.657s.577.282.673.657c0 .282.289.563.867.563h1.156c.674 0 .867-.376.867-.751v-.47c0-.376-.193-.469-.481-.657l-2.216-.563c-.867-.281-1.252-.845-1.252-1.689v-.376c0-1.314.771-1.877 2.119-1.877h.771c1.348 0 2.119.469 2.119 1.689 0 .376-.097.657-.675.657-.481 0-.577-.282-.674-.657 0-.281-.289-.563-.77-.563h-.771c-.674 0-.867.376-.867.751v.376c0 .282.193.47.481.657l2.216.563c.867.282 1.348.751 1.348 1.689v.47c0 1.314-.771 1.877-2.119 1.877h-1.348zm6.257-2.628c0 .845.385 1.314 1.349 1.314h1.734v-5.537c0-.376.192-.657.674-.657s.674.282.674.657v6.101c0 .376-.193.657-.675.657H39.09c-1.83 0-2.6-.938-2.6-2.534v-4.224c0-.376.193-.657.675-.657.481 0 .673.282.673.657v4.224h-.193zm10.785-2.157c0-.845-.385-1.314-1.348-1.314h-1.734v5.537c0 .376-.193.657-.674.657S44 20.179 44 19.804v-6.1c0-.375.193-.657.675-.657h2.311c1.734 0 2.6.939 2.6 2.534v4.224c0 .376-.193.657-.675.657s-.674-.282-.674-.657v-4.223h.193zm8.767 5.442c0 1.503-.867 2.722-2.697 2.722h-1.541c-.289 0-.675-.188-.675-.563s.289-.563.675-.563h1.637c.963 0 1.445-.657 1.445-1.502v-.751h-1.734c-1.734 0-2.6-.938-2.6-2.534v-1.971c0-1.596.867-2.722 2.696-2.722h2.312c.481 0 .675.282.675.657v7.228h-.193zm-2.89-6.851c-.963 0-1.348.657-1.348 1.502v1.971c0 .845.385 1.315 1.348 1.315h1.734v-4.787h-1.734z"/></symbol><symbol id="android" viewBox="0 0 200 32"><path fill="#77c159" style="fill:var(--color12,#77c159)" d="M27.652 8.918c2.632 0 4.826 1.345 5.848 2.798V9.281h4.021v18.163h-2.736a1.286 1.286 0 0 1-1.286-1.281v-1.151c-1.023 1.452-3.217 2.795-5.849 2.795-5.007 0-8.809-4.249-8.809-9.444s3.803-9.446 8.809-9.446zm.731 3.634c-3.254 0-5.447 2.543-5.447 5.812s2.193 5.813 5.447 5.813 5.448-2.544 5.448-5.813c0-3.27-2.194-5.812-5.447-5.812zM42.09 9.281h4.021v2.47c1.096-1.816 3.181-2.833 5.557-2.833 4.24 0 6.982 2.979 6.982 7.593v10.932h-2.736a1.285 1.285 0 0 1-1.286-1.281v-8.997c0-2.87-1.463-4.614-3.801-4.614-2.669 0-4.716 2.071-4.716 5.957v8.936h-2.736a1.286 1.286 0 0 1-1.286-1.281V9.281zm28.549-.363c2.632 0 4.826 1.345 5.849 2.798V.202h4.019v27.245h-2.733a1.286 1.286 0 0 1-1.286-1.282v-1.15c-1.023 1.452-3.217 2.795-5.849 2.795-5.009 0-8.81-4.249-8.81-9.444s3.802-9.446 8.81-9.446zm.731 3.634c-3.253 0-5.447 2.542-5.447 5.812 0 3.268 2.194 5.812 5.447 5.812 3.251 0 5.445-2.543 5.445-5.812s-2.193-5.812-5.445-5.812zm13.703-3.273h4.021v3.233c.694-2.07 2.741-3.414 4.826-3.414.51 0 1.024.037 1.571.146v4.104c-.696-.218-1.279-.327-2.01-.327-2.303 0-4.387 1.926-4.387 5.558v8.863H86.359a1.285 1.285 0 0 1-1.286-1.281V9.279zm21.259 18.529c-5.409 0-9.576-4.178-9.576-9.443 0-5.267 4.168-9.446 9.576-9.446 5.411 0 9.577 4.178 9.577 9.447 0 5.265-4.166 9.443-9.577 9.443zm0-3.704c3.217 0 5.484-2.508 5.484-5.739 0-3.233-2.267-5.741-5.484-5.741-3.252 0-5.519 2.508-5.519 5.74s2.266 5.739 5.519 5.739zm14.846-18.78c-1.462 0-2.705-1.197-2.705-2.689 0-1.453 1.243-2.651 2.705-2.651h.017a2.653 2.653 0 0 1 2.652 2.651c0 1.491-1.17 2.689-2.669 2.689zm-2.009 3.958h4.019v18.163h-2.733a1.285 1.285 0 0 1-1.286-1.281V9.282zm16.133-.364c2.632 0 4.826 1.345 5.85 2.798V.202h4.02v27.245H142.436a1.284 1.284 0 0 1-1.284-1.282v-1.15c-1.024 1.452-3.218 2.795-5.85 2.795-5.006 0-8.808-4.249-8.808-9.444s3.802-9.446 8.808-9.446zm.732 3.634c-3.251 0-5.445 2.542-5.445 5.812 0 3.268 2.193 5.812 5.445 5.812 3.254 0 5.448-2.543 5.448-5.812s-2.193-5.812-5.448-5.812z"/><path fill="#fff" style="fill:var(--color11,#fff)" opacity=".8" d="M152.165 11.598h-3.934v-2.41h3.934V4.11h2.573v5.078h5.368v2.41h-5.368v10.558c0 2.227.993 3.104 3.051 3.104.735 0 1.728-.146 2.317-.401v2.301c-.847.329-1.728.475-2.721.475-3.124 0-5.219-1.791-5.219-5.262V11.597zm28.856-2.419-8.6 18.266h-2.022l-8.602-18.266h2.867l6.727 14.503 6.726-14.503h2.904z"/></symbol><symbol id="ios" viewBox="0 0 154 32"><path fill="#fff" style="fill:var(--color11,#fff)" opacity=".8" d="M74.915 27.103H72.79V14.357h2.125v12.744zm-1.062-14.87c-.744 0-1.381-.637-1.381-1.381s.637-1.38 1.381-1.38 1.381.637 1.381 1.381c0 .743-.637 1.38-1.381 1.38zm12.85 15.188c-5.629 0-9.24-4.035-9.24-10.408s3.611-10.408 9.24-10.408 9.24 4.035 9.24 10.408-3.611 10.408-9.24 10.408zm7.223-10.409c0-5.31-2.762-8.709-7.222-8.709s-7.222 3.399-7.222 8.71c0 5.31 2.762 8.602 7.222 8.602s7.222-3.293 7.222-8.603zm11.364 10.409c-4.248 0-7.222-2.336-7.434-5.841h1.912c.212 2.443 2.442 4.036 5.629 4.036 3.08 0 5.204-1.699 5.204-3.93 0-1.912-1.274-2.974-4.354-3.717l-2.549-.637c-3.718-.957-5.417-2.55-5.417-5.204 0-3.293 2.974-5.629 6.904-5.629s6.797 2.337 6.904 5.523h-1.699c-.106-2.23-2.124-3.718-4.992-3.718-2.761 0-4.886 1.593-4.886 3.824 0 1.699 1.275 2.762 4.248 3.505l2.23.531c4.036 1.062 5.736 2.549 5.736 5.416-.106 3.505-2.867 5.841-7.434 5.841zm-40.996-5.523c-.424.956-.956 1.912-1.487 2.655-.744 1.169-1.381 1.912-1.912 2.337-.744.744-1.593 1.062-2.443 1.062-.637 0-1.38-.213-2.336-.531-.85-.319-1.699-.531-2.443-.531s-1.593.212-2.549.531c-.849.319-1.593.531-2.23.531-.849 0-1.699-.319-2.549-1.169-.531-.424-1.169-1.274-2.017-2.442-.85-1.169-1.594-2.655-2.125-4.248s-.85-3.293-.85-4.886c0-1.912.425-3.505 1.169-4.779a7.376 7.376 0 0 1 2.516-2.53l.033-.018a6.521 6.521 0 0 1 3.397-.956h.001c.637 0 1.593.212 2.655.637s1.806.637 2.124.637c.213 0 .957-.213 2.337-.744 1.274-.424 2.336-.637 3.186-.531 2.336.212 4.142 1.062 5.31 2.762-2.124 1.274-3.08 3.08-3.08 5.31 0 1.805.637 3.293 1.912 4.461a6.022 6.022 0 0 0 1.912 1.274c-.228.335-.41.724-.525 1.141l-.007.028zM58.877.763c0 1.38-.531 2.655-1.487 3.93-1.169 1.38-2.655 2.23-4.248 2.124v-.531c0-1.381.531-2.762 1.593-3.93.531-.637 1.169-1.062 1.912-1.487s1.487-.637 2.23-.637v.531z"/></symbol><symbol id="lg" viewBox="0 0 238 32"><path fill="#fff" style="fill:var(--color11,#fff)" opacity=".8" d="m138.056 18.16 4.893 9.178h3.199l-4.893-9.359-3.199.18zm9.603-9.543h7.151v18.717h3.011V8.617h7.151V6.638h-17.313v1.979zM79.718 27.701c4.517 0 7.339-1.981 7.528-5.04s-1.505-4.679-6.21-6.479c-3.952-1.44-5.269-2.699-5.269-4.499 0-1.98 1.882-3.24 4.704-3.24 2.258 0 4.141.36 5.27.9l.941-1.8c-1.693-.72-3.952-1.08-6.774-1.08-4.516 0-7.151 2.339-7.151 5.398 0 3.06 1.882 4.68 6.209 6.3 3.952 1.44 5.081 2.339 5.081 4.319s-1.882 3.419-5.269 3.239c-1.694 0-3.952-.72-5.269-1.44l-.941 1.8c1.129.54 3.387 1.619 7.151 1.619zm31.997-20.879h-4.704l-6.022 18.537-6.022-18.537h-4.704v20.517h2.258V8.442l6.209 18.897h3.952l6.022-18.897v18.897h.376l2.634-7.019V6.822z"/><path fill="#fff" style="fill:var(--color11,#fff)" opacity=".8" d="M144.08 8.077c-1.318-.899-3.199-1.44-5.645-1.44h-7.715v12.598l3.011 7.739V8.616h4.516c3.576 0 4.705 1.62 4.705 3.96 0 2.52-1.129 4.319-5.269 4.319h-3.011v1.8h4.893c3.951 0 6.209-2.88 6.209-5.939.189-2.16-.564-3.779-1.693-4.68zm66.24-1.26h-3.199l-6.398 17.457-6.586-17.457h-3.387l7.715 20.517h4.14l7.715-20.517zm-39.704 1.62h7.339v18.897h3.952V8.437h7.339v-1.62h-18.63v1.62zM53.942 19.422h4.139v3.599c-.752.36-2.257.719-3.763.719-4.515 0-6.022-2.159-6.022-6.659 0-4.319 1.506-6.659 6.022-6.659 2.446 0 3.951.72 5.08 2.16l3.011-2.699c-1.882-2.52-5.27-3.42-8.28-3.42-6.963 0-10.726 3.599-10.726 10.618s3.388 10.618 10.727 10.618c3.386 0 6.586-.9 8.467-1.98V15.641h-8.656v3.779zM32.493 6.643H27.6v20.696h15.243v-3.958h-10.35V6.644z"/><path fill="#1999d6" style="fill:var(--color13,#1999d6)" d="m123.945 14.02 2.822-1.619-3.199-8.459-1.882 4.139 2.259 5.939z"/><path fill="#30bec2" style="fill:var(--color14,#30bec2)" d="m126.767 12.399-2.822 1.619 1.317 3.059 4.14 2.34-2.634-7.019z"/><path fill="#97c742" style="fill:var(--color15,#97c742)" d="m121.871 19.599 1.694 1.26-1.694 1.08 7.715 5.939-1.318-3.42-6.398-4.859z"/><path fill="#f68524" style="fill:var(--color16,#f68524)" d="m121.869 19.599-7.151 5.039-1.318 3.24 8.468-5.939-1.693-1.08 1.693-1.259z"/><path fill="#9d7230" style="fill:var(--color17,#9d7230)" d="m121.869 19.599-1.693 1.26 1.693 1.08 1.694-1.08-1.694-1.259z"/><path fill="#71c596" style="fill:var(--color18,#71c596)" d="m129.397 19.418-4.14-2.34 3.011 7.379 4.328 3.42-3.199-8.459z"/><path fill="#38b24b" style="fill:var(--color19,#38b24b)" d="m128.273 24.458 1.318 3.419h3.011l-4.328-3.419z"/><path fill="#f15c2a" style="fill:var(--color20,#f15c2a)" d="m117.733 17.795-4.516 2.7-3.011 7.379 4.516-3.239 3.011-6.839z"/><path fill="#ef3b25" style="fill:var(--color21,#ef3b25)" d="M110.206 27.877h3.199l1.318-3.239-4.516 3.239z"/><path fill="#6e449b" style="fill:var(--color22,#6e449b)" d="m121.685 8.081-1.693-4.139-3.199 8.098 2.634 1.44 2.258-5.399z"/><path fill="#ed174f" style="fill:var(--color23,#ed174f)" d="m116.794 12.045-3.575 8.459 4.516-2.7 1.693-4.32-2.634-1.439z"/><path fill="#3c2e46" style="fill:var(--color24,#3c2e46)" d="M123.564 3.942h-3.576l1.694 4.139 1.882-4.139z"/></symbol><symbol id="arrow-down" viewBox="0 0 64 32"><path fill="none" stroke-linejoin="round" stroke-linecap="round" stroke-width="12.8" d="M6.4 6.4 32 24.832 57.6 6.4"/></symbol><symbol id="whatsapp" viewBox="0 0 32 32"><path fill="#00e676" style="fill:var(--color1,#00e676)" d="m8.461 27.406.523.258c2.179 1.293 4.62 1.896 7.061 1.896 7.67 0 13.946-6.205 13.946-13.79 0-3.619-1.482-7.153-4.097-9.738a13.881 13.881 0 0 0-9.819-4.05h-.033.002c-7.67 0-13.946 6.205-13.859 13.875 0 2.586.784 5.085 2.091 7.24l.349.517-1.394 5.085 5.23-1.293z"/><path fill="#fff" style="fill:var(--color2,#fff)" d="M27.373 4.654C24.41 1.638 20.313 0 16.129 0 7.238 0 .091 7.154.176 15.858c0 2.758.785 5.43 2.093 7.843L.003 31.888l8.455-2.154c2.353 1.293 4.968 1.896 7.583 1.896 8.804 0 15.952-7.153 15.952-15.858 0-4.223-1.657-8.188-4.621-11.118zM16.129 28.958c-2.354 0-4.707-.602-6.712-1.81l-.523-.258-5.055 1.293 1.307-4.912-.348-.518C.962 16.634 2.792 8.532 9.068 4.74S23.45 2.758 27.286 8.963c3.835 6.206 2.005 14.221-4.27 18.013-2.006 1.293-4.446 1.982-6.886 1.982zm7.67-9.566-.958-.431s-1.395-.603-2.266-1.034c-.088 0-.174-.086-.262-.086-.262 0-.436.086-.61.173 0 0-.087.086-1.307 1.465a.482.482 0 0 1-.426.259H17.873c-.087 0-.262-.086-.349-.173l-.436-.172c-.958-.431-1.83-.948-2.528-1.638-.174-.173-.435-.345-.61-.518-.61-.603-1.221-1.293-1.656-2.068l-.088-.173c-.086-.086-.086-.172-.174-.344 0-.173 0-.345.087-.432 0 0 .349-.43.61-.689.174-.173.261-.431.435-.603.174-.258.262-.603.174-.862-.087-.43-1.133-2.758-1.394-3.274-.174-.259-.349-.345-.61-.431h-.958c-.174 0-.349.086-.523.086l-.087.086c-.174.086-.349.259-.523.345-.174.173-.262.345-.436.518-.61.776-.958 1.724-.958 2.672 0 .689.174 1.378.436 1.982l.087.259a14.444 14.444 0 0 0 3.216 4.387l.009.008.349.344c.262.259.523.432.698.69 1.83 1.552 3.922 2.672 6.276 3.275.261.086.61.086.872.173h.871c.435 0 .958-.173 1.307-.345.262-.173.436-.173.61-.345l.174-.173c.174-.172.349-.258.522-.43s.349-.345.436-.518c.174-.344.262-.776.349-1.206v-.603s-.088-.086-.262-.172z"/></symbol><symbol id="telegram-support" viewBox="0 0 32 32"><path fill="#40b3e0" style="fill:var(--color2,#40b3e0)" d="M16 0C7.163 0 0 7.163 0 16s7.163 16 16 16 16-7.163 16-16S24.837 0 16 0z"/><path fill="#fff" style="fill:var(--color1,#fff)" d="M23.788 9.197 20.93 23.605s-.4 1-1.498.52l-6.595-5.056-2.398-1.158-4.037-1.36s-.619-.219-.68-.698c-.059-.48.7-.74.7-.74l16.047-6.295s1.319-.579 1.319.38z"/><path fill="#d2e5f1" style="fill:var(--color3,#d2e5f1)" d="M12.328 23.446s-.192-.018-.432-.777c-.24-.76-1.458-4.757-1.458-4.757l9.692-6.154s.56-.34.54 0c0 0 .1.06-.2.339s-7.614 6.854-7.614 6.854z"/><path fill="#b5cfe4" style="fill:var(--color4,#b5cfe4)" d="m15.363 21.013-2.608 2.378s-.204.154-.427.058l.5-4.418z"/></symbol></defs></svg>